<?xml version="1.0" encoding="UTF-8" standalone="no"?>
<!-- Generator: Adobe Illustrator 23.0.3, SVG Export Plug-In . SVG Version: 6.00 Build 0)  -->

<svg
   xmlns:dc="http://purl.org/dc/elements/1.1/"
   xmlns:cc="http://creativecommons.org/ns#"
   xmlns:rdf="http://www.w3.org/1999/02/22-rdf-syntax-ns#"
   xmlns:svg="http://www.w3.org/2000/svg"
   xmlns="http://www.w3.org/2000/svg"
   xmlns:sodipodi="http://sodipodi.sourceforge.net/DTD/sodipodi-0.dtd"
   xmlns:inkscape="http://www.inkscape.org/namespaces/inkscape"
   version="1.1"
   id="Calque_1"
   x="0px"
   y="0px"
   viewBox="0 0 536.34003 185.03999"
   xml:space="preserve"
   inkscape:version="0.91 r13725"
   sodipodi:docname="inrsi.svg"
   inkscape:export-filename="/home/ltrudeau/Workspace/inrsi.github.io/logo/couleur/inrsi.png"
   inkscape:export-xdpi="364.80365"
   inkscape:export-ydpi="364.80365"
   width="536.34003"
   height="185.03999"><metadata
     id="metadata3523"><rdf:RDF><cc:Work
         rdf:about=""><dc:format>image/svg+xml</dc:format><dc:type
           rdf:resource="http://purl.org/dc/dcmitype/StillImage" /><dc:title></dc:title><dc:title></dc:title></cc:Work></rdf:RDF></metadata><defs
     id="defs3521" /><sodipodi:namedview
     pagecolor="#ffffff"
     bordercolor="#666666"
     borderopacity="1"
     objecttolerance="10"
     gridtolerance="10"
     guidetolerance="10"
     inkscape:pageopacity="0"
     inkscape:pageshadow="2"
     inkscape:window-width="2560"
     inkscape:window-height="1411"
     id="namedview3519"
     showgrid="false"
     fit-margin-top="20"
     fit-margin-right="20"
     fit-margin-left="20"
     fit-margin-bottom="20"
     inkscape:zoom="2.0473856"
     inkscape:cx="274.20639"
     inkscape:cy="197.43261"
     inkscape:window-x="0"
     inkscape:window-y="29"
     inkscape:window-maximized="0"
     inkscape:current-layer="Calque_1" /><style
     type="text/css"
     id="style3449">
	.st0{fill:#033E60;}
	.st1{fill:#BC163C;}
	.st2{fill:#A61736;}
	.st3{fill:#0E8A9E;}
	.st4{fill:#199AA8;}
	.st5{fill:#9D9D9C;}
	.st6{fill:#C0C0C0;}
</style><path
     class="st0"
     d="m 28.93,79.92 c -4.92,0 -8.93,-4 -8.93,-9.08 0,-4.92 4,-8.93 8.93,-8.93 4.93,0 9.08,4 9.08,8.93 0,5.08 -4.16,9.08 -9.08,9.08 z M 20,156.1 20,102.24 c 0,-4.92 4,-9.08 8.93,-9.08 4.93,0 9.08,4.16 9.08,9.08 l 0,53.86 c 0,4.92 -4.16,8.93 -9.08,8.93 -4.92,0 -8.93,-4.01 -8.93,-8.93 z"
     id="path3451"
     inkscape:export-xdpi="371.07004"
     inkscape:export-ydpi="371.07004"
     inkscape:connector-curvature="0"
     style="fill:#ffffff" /><path
     class="st0"
     d="m 113.11,102.24 0,53.86 c 0,3.69 -2.31,7.08 -5.85,8.31 -1.08,0.46 -2.15,0.62 -3.23,0.62 -2.62,0 -5.08,-1.23 -6.77,-3.23 l -28.93,-34.78 0,29.09 c 0,4.92 -4,8.93 -9.08,8.93 -4.92,0 -8.93,-4 -8.93,-8.93 l 0,-53.86 c 0,-3.85 2.31,-7.23 5.85,-8.46 1.08,-0.46 2.15,-0.62 3.23,-0.62 2.62,0 5.08,1.23 6.77,3.23 l 29.09,34.78 0,-28.93 c 0,-5.08 4,-9.08 8.93,-9.08 4.93,0 8.92,3.99 8.92,9.07 z"
     id="path3453"
     inkscape:export-xdpi="371.07004"
     inkscape:export-ydpi="371.07004"
     inkscape:connector-curvature="0"
     style="fill:#ffffff" /><path
     class="st1"
     d="m 198.91,151.33 c 0.92,1.54 1.39,3.08 1.39,4.77 0,2.92 -1.54,5.85 -4.31,7.54 -1.38,0.92 -3.08,1.39 -4.62,1.39 -3.08,0 -6,-1.54 -7.7,-4.16 l -19.85,-31.7 -15.08,0 0,26.93 c 0,4.92 -4.16,8.93 -9.08,8.93 -4.92,0 -8.93,-4 -8.93,-8.93 l 0,-89.88 c 0,-4.92 4,-8.93 8.93,-8.93 l 24.47,0 c 0.92,0 9.08,0.15 17.54,4.31 12,6 18.62,17.08 18.62,31.55 0,0.92 -0.15,9.23 -4.31,17.54 -3.23,6.31 -7.85,11.08 -13.54,14.16 l 16.47,26.48 z m -50.17,-40.17 15.39,0 c 7.7,0 12.62,-2.62 15.54,-8.16 2.46,-4.62 2.62,-9.54 2.62,-9.85 0,-7.7 -2.77,-12.62 -8.62,-15.54 -4.62,-2.31 -9.54,-2.31 -9.54,-2.31 l -15.39,0 0,35.86 z"
     id="path3455"
     inkscape:export-xdpi="371.07004"
     inkscape:export-ydpi="371.07004"
     inkscape:connector-curvature="0"
     style="fill:#ffffff" /><path
     class="st0"
     d="m 261.18,138.09 0,1.69 c 0,5.85 -2.15,11.7 -6.31,16.16 -5.39,5.85 -13.23,9.08 -22.31,9.08 -10.16,0 -19.39,-5.08 -24.01,-13.08 -0.77,-1.39 -1.23,-3.08 -1.23,-4.62 0,-3.08 1.54,-6 4.46,-7.7 1.39,-0.77 2.92,-1.23 4.46,-1.23 3.08,0 6.16,1.69 7.85,4.62 1.69,2.92 5.54,4 8.46,4 4,0 7.23,-1.08 9.08,-3.23 1.23,-1.23 1.69,-2.62 1.69,-4.16 -0.77,-1.85 -7.39,-5.08 -12.62,-6.31 -0.15,0 -0.46,0 -0.62,-0.15 -9.08,-2.62 -20.01,-8.62 -20.01,-22.32 0,-12 11.08,-20.93 25.85,-20.93 4.92,0 10.31,1.54 14.47,4.16 2.77,1.69 4.31,4.62 4.31,7.7 0,1.69 -0.46,3.23 -1.39,4.77 -1.69,2.62 -4.46,4.16 -7.54,4.16 -1.69,0 -3.39,-0.46 -4.92,-1.39 -1.39,-0.92 -3.39,-1.39 -4.92,-1.39 -5.54,0 -7.85,2.31 -7.85,2.92 0,1.08 0,3.08 6.77,5.08 1.39,0.31 6.16,1.54 11.08,3.85 11.86,5.7 14.79,13.09 15.25,18.32 z"
     id="path3457"
     inkscape:export-xdpi="371.07004"
     inkscape:export-ydpi="371.07004"
     inkscape:connector-curvature="0"
     style="fill:#ffffff" /><path
     class="st0"
     d="m 282.42,79.92 c -4.92,0 -8.93,-4 -8.93,-9.08 0,-4.92 4,-8.93 8.93,-8.93 4.93,0 9.08,4 9.08,8.93 0,5.08 -4.16,9.08 -9.08,9.08 z m -8.93,76.18 0,-53.86 c 0,-4.92 4,-9.08 8.93,-9.08 4.93,0 9.08,4.16 9.08,9.08 l 0,53.86 c 0,4.92 -4.16,8.93 -9.08,8.93 -4.92,0 -8.93,-4.01 -8.93,-8.93 z"
     id="path3459"
     inkscape:export-xdpi="371.07004"
     inkscape:export-ydpi="371.07004"
     inkscape:connector-curvature="0"
     style="fill:#ffffff" /><path
     class="st2"
     d="m 445.63,34.14 -145.28,0 c -3.91,0 -7.07,-3.17 -7.07,-7.07 0,-3.91 3.17,-7.07 7.07,-7.07 l 145.29,0 c 3.91,0 7.07,3.17 7.07,7.07 0,3.9 -3.17,7.07 -7.08,7.07 z"
     id="path3505"
     inkscape:export-xdpi="371.07004"
     inkscape:export-ydpi="371.07004"
     inkscape:connector-curvature="0"
     style="fill:#ffffff" /><path
     class="st1"
     d="m 478.78,55.48 -145.29,0 c -3.91,0 -7.07,-3.17 -7.07,-7.07 0,-3.91 3.17,-7.07 7.07,-7.07 l 145.29,0 c 3.91,0 7.07,3.17 7.07,7.07 0,3.91 -3.16,7.07 -7.07,7.07 z"
     id="path3507"
     inkscape:export-xdpi="371.07004"
     inkscape:export-ydpi="371.07004"
     inkscape:connector-curvature="0"
     style="fill:#ffffff" /><path
     class="st0"
     d="m 509.27,76.83 -145.29,0 c -3.91,0 -7.07,-3.17 -7.07,-7.07 0,-3.91 3.17,-7.07 7.07,-7.07 l 145.29,0 c 3.91,0 7.07,3.17 7.07,7.07 0.01,3.9 -3.16,7.07 -7.07,7.07 z"
     id="path3509"
     inkscape:export-xdpi="371.07004"
     inkscape:export-ydpi="371.07004"
     inkscape:connector-curvature="0"
     style="fill:#ffffff" /><path
     class="st3"
     d="m 435.11,97.61 -86.37,0 c -3.91,0 -7.07,-3.17 -7.07,-7.07 0,-3.91 3.17,-7.07 7.07,-7.07 l 86.37,0 c 3.91,0 7.07,3.17 7.07,7.07 0.01,3.9 -3.16,7.07 -7.07,7.07 z"
     id="path3511"
     inkscape:export-xdpi="371.07004"
     inkscape:export-ydpi="371.07004"
     inkscape:connector-curvature="0"
     style="fill:#ffffff" /><path
     class="st4"
     d="m 389.3,119.55 c -3.87,0 -7.03,-3.12 -7.07,-7 -0.04,-3.91 3.09,-7.11 7,-7.15 l 51.86,-0.53 c 0.02,0 0.05,0 0.07,0 3.87,0 7.03,3.12 7.07,7 0.04,3.91 -3.09,7.11 -7,7.15 l -51.86,0.53 c -0.02,0 -0.04,0 -0.07,0 z"
     id="path3513"
     inkscape:export-xdpi="371.07004"
     inkscape:export-ydpi="371.07004"
     inkscape:connector-curvature="0"
     style="fill:#ffffff" /><path
     class="st5"
     d="m 375.54,139.19 c -3.87,0 -7.03,-3.12 -7.07,-7 -0.04,-3.91 3.09,-7.11 7,-7.15 l 33.66,-0.34 c 3.93,0.01 7.11,3.09 7.15,7 0.04,3.91 -3.09,7.11 -7,7.15 l -33.66,0.34 c -0.03,0 -0.05,0 -0.08,0 z"
     id="path3515"
     inkscape:export-xdpi="371.07004"
     inkscape:export-ydpi="371.07004"
     inkscape:connector-curvature="0"
     style="fill:#ffffff" /><path
     class="st6"
     d="m 354.3,158.23 c -3.87,0 -7.03,-3.12 -7.07,-7 -0.04,-3.91 3.09,-7.11 7,-7.14 l 24.39,-0.25 c 0.02,0 0.05,0 0.07,0 3.87,0 7.03,3.12 7.07,7 0.04,3.91 -3.09,7.11 -7,7.14 l -24.39,0.25 c -0.02,0 -0.04,0 -0.07,0 z"
     id="path3517"
     inkscape:export-xdpi="371.07004"
     inkscape:export-ydpi="371.07004"
     inkscape:connector-curvature="0"
     style="fill:#ffffff" /><path
     id="path3525"
     d="m 445.63,34.14 -145.28,0 c -3.91,0 -7.07,-3.17 -7.07,-7.07 0,-3.91 3.17,-7.07 7.07,-7.07 l 145.29,0 c 3.91,0 7.07,3.17 7.07,7.07 0,3.9 -3.17,7.07 -7.08,7.07 z"
     class="st2"
     inkscape:export-xdpi="371.07004"
     inkscape:export-ydpi="371.07004"
     inkscape:connector-curvature="0"
     style="fill:#ffffff" /><path
     id="path3527"
     d="m 478.78,55.48 -145.29,0 c -3.91,0 -7.07,-3.17 -7.07,-7.07 0,-3.91 3.17,-7.07 7.07,-7.07 l 145.29,0 c 3.91,0 7.07,3.17 7.07,7.07 0,3.91 -3.16,7.07 -7.07,7.07 z"
     class="st1"
     inkscape:export-xdpi="371.07004"
     inkscape:export-ydpi="371.07004"
     inkscape:connector-curvature="0"
     style="fill:#ffffff" /><path
     id="path3529"
     d="m 509.27,76.83 -145.29,0 c -3.91,0 -7.07,-3.17 -7.07,-7.07 0,-3.91 3.17,-7.07 7.07,-7.07 l 145.29,0 c 3.91,0 7.07,3.17 7.07,7.07 0.01,3.9 -3.16,7.07 -7.07,7.07 z"
     class="st0"
     inkscape:export-xdpi="371.07004"
     inkscape:export-ydpi="371.07004"
     inkscape:connector-curvature="0"
     style="fill:#ffffff" /><path
     id="path3531"
     d="m 435.11,97.61 -86.37,0 c -3.91,0 -7.07,-3.17 -7.07,-7.07 0,-3.91 3.17,-7.07 7.07,-7.07 l 86.37,0 c 3.91,0 7.07,3.17 7.07,7.07 0.01,3.9 -3.16,7.07 -7.07,7.07 z"
     class="st3"
     inkscape:export-xdpi="371.07004"
     inkscape:export-ydpi="371.07004"
     inkscape:connector-curvature="0"
     style="fill:#ffffff" /><path
     id="path3533"
     d="m 389.3,119.55 c -3.87,0 -7.03,-3.12 -7.07,-7 -0.04,-3.91 3.09,-7.11 7,-7.15 l 51.86,-0.53 c 0.02,0 0.05,0 0.07,0 3.87,0 7.03,3.12 7.07,7 0.04,3.91 -3.09,7.11 -7,7.15 l -51.86,0.53 c -0.02,0 -0.04,0 -0.07,0 z"
     class="st4"
     inkscape:export-xdpi="371.07004"
     inkscape:export-ydpi="371.07004"
     inkscape:connector-curvature="0"
     style="fill:#ffffff" /><path
     id="path3535"
     d="m 375.54,139.19 c -3.87,0 -7.03,-3.12 -7.07,-7 -0.04,-3.91 3.09,-7.11 7,-7.15 l 33.66,-0.34 c 3.93,0.01 7.11,3.09 7.15,7 0.04,3.91 -3.09,7.11 -7,7.15 l -33.66,0.34 c -0.03,0 -0.05,0 -0.08,0 z"
     class="st5"
     inkscape:export-xdpi="371.07004"
     inkscape:export-ydpi="371.07004"
     inkscape:connector-curvature="0"
     style="fill:#ffffff" /><path
     id="path3537"
     d="m 354.3,158.23 c -3.87,0 -7.03,-3.12 -7.07,-7 -0.04,-3.91 3.09,-7.11 7,-7.14 l 24.39,-0.25 c 0.02,0 0.05,0 0.07,0 3.87,0 7.03,3.12 7.07,7 0.04,3.91 -3.09,7.11 -7,7.14 l -24.39,0.25 c -0.02,0 -0.04,0 -0.07,0 z"
     class="st6"
     inkscape:export-xdpi="371.07004"
     inkscape:export-ydpi="371.07004"
     inkscape:connector-curvature="0"
     style="fill:#ffffff" /></svg>