<?xml version="1.0" encoding="UTF-8" standalone="no"?>
<!-- Generator: Adobe Illustrator 23.0.3, SVG Export Plug-In . SVG Version: 6.00 Build 0)  -->

<svg
   xmlns:dc="http://purl.org/dc/elements/1.1/"
   xmlns:cc="http://creativecommons.org/ns#"
   xmlns:rdf="http://www.w3.org/1999/02/22-rdf-syntax-ns#"
   xmlns:svg="http://www.w3.org/2000/svg"
   xmlns="http://www.w3.org/2000/svg"
   xmlns:sodipodi="http://sodipodi.sourceforge.net/DTD/sodipodi-0.dtd"
   xmlns:inkscape="http://www.inkscape.org/namespaces/inkscape"
   version="1.1"
   id="Calque_1"
   x="0px"
   y="0px"
   viewBox="0 0 536.34003 185.03999"
   xml:space="preserve"
   inkscape:version="0.91 r13725"
   sodipodi:docname="inrsi_com.svg"
   inkscape:export-filename="/home/ltrudeau/Workspace/inrsi.github.io/logo/couleur/inrsi_com.png"
   inkscape:export-xdpi="343.87161"
   inkscape:export-ydpi="343.87161"
   width="536.34003"
   height="185.03999"><metadata
     id="metadata3523"><rdf:RDF><cc:Work
         rdf:about=""><dc:format>image/svg+xml</dc:format><dc:type
           rdf:resource="http://purl.org/dc/dcmitype/StillImage" /><dc:title></dc:title></cc:Work></rdf:RDF></metadata><defs
     id="defs3521" /><sodipodi:namedview
     pagecolor="#ffffff"
     bordercolor="#666666"
     borderopacity="1"
     objecttolerance="10"
     gridtolerance="10"
     guidetolerance="10"
     inkscape:pageopacity="0"
     inkscape:pageshadow="2"
     inkscape:window-width="2560"
     inkscape:window-height="1411"
     id="namedview3519"
     showgrid="false"
     fit-margin-top="20"
     fit-margin-right="20"
     fit-margin-left="20"
     fit-margin-bottom="20"
     inkscape:zoom="2.5504049"
     inkscape:cx="211.25138"
     inkscape:cy="75.775988"
     inkscape:window-x="0"
     inkscape:window-y="29"
     inkscape:window-maximized="0"
     inkscape:current-layer="Calque_1" /><style
     type="text/css"
     id="style3449">
	.st0{fill:#033E60;}
	.st1{fill:#BC163C;}
	.st2{fill:#A61736;}
	.st3{fill:#0E8A9E;}
	.st4{fill:#199AA8;}
	.st5{fill:#9D9D9C;}
	.st6{fill:#C0C0C0;}
</style><path
     class="st0"
     d="m 28.93,79.92 c -4.92,0 -8.93,-4 -8.93,-9.08 0,-4.92 4,-8.93 8.93,-8.93 4.93,0 9.08,4 9.08,8.93 0,5.08 -4.16,9.08 -9.08,9.08 z M 20,156.1 20,102.24 c 0,-4.92 4,-9.08 8.93,-9.08 4.93,0 9.08,4.16 9.08,9.08 l 0,53.86 c 0,4.92 -4.16,8.93 -9.08,8.93 -4.92,0 -8.93,-4.01 -8.93,-8.93 z"
     id="path3451"
     inkscape:connector-curvature="0"
     style="fill:#ffffff" /><path
     class="st0"
     d="m 113.11,102.24 0,53.86 c 0,3.69 -2.31,7.08 -5.85,8.31 -1.08,0.46 -2.15,0.62 -3.23,0.62 -2.62,0 -5.08,-1.23 -6.77,-3.23 l -28.93,-34.78 0,29.09 c 0,4.92 -4,8.93 -9.08,8.93 -4.92,0 -8.93,-4 -8.93,-8.93 l 0,-53.86 c 0,-3.85 2.31,-7.23 5.85,-8.46 1.08,-0.46 2.15,-0.62 3.23,-0.62 2.62,0 5.08,1.23 6.77,3.23 l 29.09,34.78 0,-28.93 c 0,-5.08 4,-9.08 8.93,-9.08 4.93,0 8.92,3.99 8.92,9.07 z"
     id="path3453"
     inkscape:connector-curvature="0"
     style="fill:#ffffff" /><path
     class="st1"
     d="m 198.91,151.33 c 0.92,1.54 1.39,3.08 1.39,4.77 0,2.92 -1.54,5.85 -4.31,7.54 -1.38,0.92 -3.08,1.39 -4.62,1.39 -3.08,0 -6,-1.54 -7.7,-4.16 l -19.85,-31.7 -15.08,0 0,26.93 c 0,4.92 -4.16,8.93 -9.08,8.93 -4.92,0 -8.93,-4 -8.93,-8.93 l 0,-89.88 c 0,-4.92 4,-8.93 8.93,-8.93 l 24.47,0 c 0.92,0 9.08,0.15 17.54,4.31 12,6 18.62,17.08 18.62,31.55 0,0.92 -0.15,9.23 -4.31,17.54 -3.23,6.31 -7.85,11.08 -13.54,14.16 l 16.47,26.48 z m -50.17,-40.17 15.39,0 c 7.7,0 12.62,-2.62 15.54,-8.16 2.46,-4.62 2.62,-9.54 2.62,-9.85 0,-7.7 -2.77,-12.62 -8.62,-15.54 -4.62,-2.31 -9.54,-2.31 -9.54,-2.31 l -15.39,0 0,35.86 z"
     id="path3455"
     inkscape:connector-curvature="0"
     style="fill:#ffffff" /><path
     class="st0"
     d="m 261.18,138.09 0,1.69 c 0,5.85 -2.15,11.7 -6.31,16.16 -5.39,5.85 -13.23,9.08 -22.31,9.08 -10.16,0 -19.39,-5.08 -24.01,-13.08 -0.77,-1.39 -1.23,-3.08 -1.23,-4.62 0,-3.08 1.54,-6 4.46,-7.7 1.39,-0.77 2.92,-1.23 4.46,-1.23 3.08,0 6.16,1.69 7.85,4.62 1.69,2.92 5.54,4 8.46,4 4,0 7.23,-1.08 9.08,-3.23 1.23,-1.23 1.69,-2.62 1.69,-4.16 -0.77,-1.85 -7.39,-5.08 -12.62,-6.31 -0.15,0 -0.46,0 -0.62,-0.15 -9.08,-2.62 -20.01,-8.62 -20.01,-22.32 0,-12 11.08,-20.93 25.85,-20.93 4.92,0 10.31,1.54 14.47,4.16 2.77,1.69 4.31,4.62 4.31,7.7 0,1.69 -0.46,3.23 -1.39,4.77 -1.69,2.62 -4.46,4.16 -7.54,4.16 -1.69,0 -3.39,-0.46 -4.92,-1.39 -1.39,-0.92 -3.39,-1.39 -4.92,-1.39 -5.54,0 -7.85,2.31 -7.85,2.92 0,1.08 0,3.08 6.77,5.08 1.39,0.31 6.16,1.54 11.08,3.85 11.86,5.7 14.79,13.09 15.25,18.32 z"
     id="path3457"
     inkscape:connector-curvature="0"
     style="fill:#ffffff" /><path
     class="st0"
     d="m 282.42,79.92 c -4.92,0 -8.93,-4 -8.93,-9.08 0,-4.92 4,-8.93 8.93,-8.93 4.93,0 9.08,4 9.08,8.93 0,5.08 -4.16,9.08 -9.08,9.08 z m -8.93,76.18 0,-53.86 c 0,-4.92 4,-9.08 8.93,-9.08 4.93,0 9.08,4.16 9.08,9.08 l 0,53.86 c 0,4.92 -4.16,8.93 -9.08,8.93 -4.92,0 -8.93,-4.01 -8.93,-8.93 z"
     id="path3459"
     inkscape:connector-curvature="0"
     style="fill:#ffffff" /><path
     id="path3525"
     d="m 456.2603,32.014242 -123.43912,0 c -3.32218,0 -6.00712,-2.693433 -6.00712,-6.007121 C 326.81406,22.684937 329.5075,20 332.82118,20 l 123.44761,0 c 3.32219,0 6.00713,2.693433 6.00713,6.007121 0,3.313688 -2.69344,6.007121 -6.01562,6.007121 z"
     class="st2"
     inkscape:export-xdpi="826.23157"
     inkscape:export-ydpi="826.23157"
     inkscape:connector-curvature="0"
     style="fill:#ffffff" /><path
     id="path3527"
     d="m 484.42664,50.146061 -123.44761,0 c -3.32218,0 -6.00712,-2.693433 -6.00712,-6.007121 0,-3.322184 2.69343,-6.007121 6.00712,-6.007121 l 123.44761,0 c 3.32219,0 6.00712,2.693433 6.00712,6.007121 0,3.322184 -2.68493,6.007121 -6.00712,6.007121 z"
     class="st1"
     inkscape:export-xdpi="826.23157"
     inkscape:export-ydpi="826.23157"
     inkscape:connector-curvature="0"
     style="fill:#ffffff" /><path
     id="path3529"
     d="m 510.33288,68.286377 -123.44761,0 c -3.32218,0 -6.00712,-2.693434 -6.00712,-6.007121 0,-3.322185 2.69344,-6.007121 6.00712,-6.007121 l 123.44761,0 c 3.32219,0 6.00712,2.693433 6.00712,6.007121 0.008,3.313687 -2.68493,6.007121 -6.00712,6.007121 z"
     class="st0"
     inkscape:export-xdpi="826.23157"
     inkscape:export-ydpi="826.23157"
     inkscape:connector-curvature="0"
     style="fill:#ffffff" /><path
     id="path3531"
     d="m 447.32184,85.942384 -73.38544,0 c -3.32218,0 -6.00712,-2.693433 -6.00712,-6.007121 0,-3.322184 2.69343,-6.007121 6.00712,-6.007121 l 73.38544,0 c 3.32218,0 6.00712,2.693434 6.00712,6.007121 0.009,3.313688 -2.68494,6.007121 -6.00712,6.007121 z"
     class="st3"
     inkscape:export-xdpi="826.23157"
     inkscape:export-ydpi="826.23157"
     inkscape:connector-curvature="0"
     style="fill:#ffffff" /><path
     id="path3533"
     d="m 408.39875,104.584 c -3.2882,0 -5.97313,-2.65095 -6.00712,-5.947643 -0.034,-3.322184 2.62546,-6.041108 5.94765,-6.075094 l 44.06355,-0.450322 c 0.017,0 0.0425,0 0.0595,0 3.2882,0 5.97314,2.65095 6.00712,5.947645 0.034,3.322184 -2.62546,6.041104 -5.94764,6.075094 l -44.06355,0.45032 c -0.017,0 -0.034,0 -0.0595,0 z"
     class="st4"
     inkscape:export-xdpi="826.23157"
     inkscape:export-ydpi="826.23157"
     inkscape:connector-curvature="0"
     style="fill:#ffffff" /><path
     id="path3535"
     d="m 396.70738,121.27139 c -3.28819,0 -5.97313,-2.65095 -6.00712,-5.94764 -0.034,-3.32219 2.62546,-6.04111 5.94765,-6.0751 l 28.59967,-0.28888 c 3.33918,0.008 6.04111,2.62546 6.07509,5.94764 0.034,3.32219 -2.62546,6.04111 -5.94764,6.0751 l -28.59967,0.28888 c -0.0255,0 -0.0425,0 -0.068,0 z"
     class="st5"
     inkscape:export-xdpi="826.23157"
     inkscape:export-ydpi="826.23157"
     inkscape:connector-curvature="0"
     style="fill:#ffffff" /><path
     id="path3537"
     d="m 378.66053,137.44899 c -3.2882,0 -5.97313,-2.65095 -6.00712,-5.94765 -0.034,-3.32218 2.62546,-6.04111 5.94764,-6.0666 l 20.7233,-0.21241 c 0.017,0 0.0425,0 0.0595,0 3.2882,0 5.97314,2.65095 6.00712,5.94764 0.034,3.32219 -2.62546,6.04111 -5.94764,6.0666 l -20.72329,0.21242 c -0.017,0 -0.034,0 -0.0595,0 z"
     class="st6"
     inkscape:export-xdpi="826.23157"
     inkscape:export-ydpi="826.23157"
     inkscape:connector-curvature="0"
     style="fill:#ffffff" /><text
     xml:space="preserve"
     style="font-style:normal;font-weight:normal;font-size:40px;line-height:125%;font-family:sans-serif;letter-spacing:0px;word-spacing:0px;fill:#ffffff;fill-opacity:1;stroke:none;stroke-width:1px;stroke-linecap:butt;stroke-linejoin:miter;stroke-opacity:1;"
     x="295.32632"
     y="164.6906"
     id="text8019"
     sodipodi:linespacing="125%"><tspan
       sodipodi:role="line"
       id="tspan8021"
       x="295.32632"
       y="164.6906"
       style="font-style:italic;font-variant:normal;font-weight:normal;font-stretch:normal;font-size:35px;font-family:'Futura Hv BT';-inkscape-font-specification:'Futura Hv BT Italic';fill:#ffffff;fill-opacity:1;">.com</tspan></text>
</svg>