<?xml version="1.0" encoding="UTF-8" standalone="no"?>
<!-- Generator: Adobe Illustrator 23.0.3, SVG Export Plug-In . SVG Version: 6.00 Build 0)  -->

<svg
   xmlns:dc="http://purl.org/dc/elements/1.1/"
   xmlns:cc="http://creativecommons.org/ns#"
   xmlns:rdf="http://www.w3.org/1999/02/22-rdf-syntax-ns#"
   xmlns:svg="http://www.w3.org/2000/svg"
   xmlns="http://www.w3.org/2000/svg"
   xmlns:sodipodi="http://sodipodi.sourceforge.net/DTD/sodipodi-0.dtd"
   xmlns:inkscape="http://www.inkscape.org/namespaces/inkscape"
   version="1.1"
   id="Calque_1"
   x="0px"
   y="0px"
   viewBox="0 0 263.06003 178.23001"
   xml:space="preserve"
   inkscape:version="0.91 r13725"
   sodipodi:docname="logo_tornade.svg"
   width="263.06003"
   height="178.23001"><metadata
     id="metadata3523"><rdf:RDF><cc:Work
         rdf:about=""><dc:format>image/svg+xml</dc:format><dc:type
           rdf:resource="http://purl.org/dc/dcmitype/StillImage" /><dc:title></dc:title></cc:Work></rdf:RDF></metadata><defs
     id="defs3521" /><sodipodi:namedview
     pagecolor="#ffffff"
     bordercolor="#666666"
     borderopacity="1"
     objecttolerance="10"
     gridtolerance="10"
     guidetolerance="10"
     inkscape:pageopacity="0"
     inkscape:pageshadow="2"
     inkscape:window-width="2560"
     inkscape:window-height="1411"
     id="namedview3519"
     showgrid="false"
     fit-margin-top="20"
     fit-margin-right="20"
     fit-margin-left="20"
     fit-margin-bottom="20"
     inkscape:zoom="2.0473856"
     inkscape:cx="393.29229"
     inkscape:cy="-128.51072"
     inkscape:window-x="0"
     inkscape:window-y="29"
     inkscape:window-maximized="0"
     inkscape:current-layer="Calque_1" /><style
     type="text/css"
     id="style3449">
	.st0{fill:#033E60;}
	.st1{fill:#BC163C;}
	.st2{fill:#A61736;}
	.st3{fill:#0E8A9E;}
	.st4{fill:#199AA8;}
	.st5{fill:#9D9D9C;}
	.st6{fill:#C0C0C0;}
</style><path
     id="path3525"
     d="m 172.35,34.14 -145.28,0 C 23.16,34.14 20,30.97 20,27.07 20,23.16 23.17,20 27.07,20 l 145.29,0 c 3.91,0 7.07,3.17 7.07,7.07 0,3.9 -3.17,7.07 -7.08,7.07 z"
     class="st2"
     inkscape:connector-curvature="0"
     style="fill:#a61736" /><path
     id="path3527"
     d="m 205.5,55.48 -145.290002,0 c -3.91,0 -7.07,-3.17 -7.07,-7.07 0,-3.91 3.17,-7.07 7.07,-7.07 L 205.5,41.34 c 3.91,0 7.07,3.17 7.07,7.07 0,3.91 -3.16,7.07 -7.07,7.07 z"
     class="st1"
     inkscape:connector-curvature="0"
     style="fill:#bc163c" /><path
     id="path3529"
     d="m 235.99,76.830004 -145.290002,0 c -3.91,0 -7.07,-3.17 -7.07,-7.07 0,-3.910004 3.17,-7.070004 7.07,-7.070004 l 145.290002,0 c 3.91,0 7.07,3.17 7.07,7.070004 0.01,3.9 -3.16,7.07 -7.07,7.07 z"
     class="st0"
     inkscape:connector-curvature="0"
     style="fill:#033e60" /><path
     id="path3531"
     d="m 161.83,97.610004 -86.370002,0 c -3.91,0 -7.07,-3.17 -7.07,-7.07 0,-3.91 3.17,-7.07 7.07,-7.07 l 86.370002,0 c 3.91,0 7.07,3.17 7.07,7.07 0.01,3.9 -3.16,7.07 -7.07,7.07 z"
     class="st3"
     inkscape:connector-curvature="0"
     style="fill:#0e8a9e" /><path
     id="path3533"
     d="m 116.02,119.55001 c -3.87,0 -7.03,-3.12 -7.07,-7 -0.04,-3.91 3.09,-7.11 7,-7.15 l 51.86,-0.53 c 0.02,0 0.05,0 0.07,0 3.87,0 7.03,3.12 7.07,7 0.04,3.91 -3.09,7.11 -7,7.15 l -51.86,0.53 c -0.02,0 -0.04,0 -0.07,0 z"
     class="st4"
     inkscape:connector-curvature="0"
     style="fill:#199aa8" /><path
     id="path3535"
     d="m 102.26,139.19001 c -3.869999,0 -7.030002,-3.12 -7.070002,-7 -0.04,-3.91 3.090003,-7.11 7.000002,-7.15 l 33.66,-0.34 c 3.93,0.01 7.11,3.09 7.15,7 0.04,3.91 -3.09,7.11 -7,7.15 l -33.66,0.34 c -0.03,0 -0.05,0 -0.08,0 z"
     class="st5"
     inkscape:connector-curvature="0"
     style="fill:#9d9d9c" /><path
     id="path3537"
     d="m 81.019998,158.23001 c -3.87,0 -7.03,-3.12 -7.07,-7 -0.04,-3.91 3.09,-7.11 7,-7.14 l 24.390002,-0.25 c 0.02,0 0.05,0 0.07,0 3.87,0 7.03,3.12 7.07,7 0.04,3.91 -3.09,7.11 -7,7.14 l -24.390002,0.25 c -0.02,0 -0.04,0 -0.07,0 z"
     class="st6"
     inkscape:connector-curvature="0"
     style="fill:#c0c0c0" /></svg>